<?xml version="1.0" encoding="UTF-8"?>
<svg xmlns="http://www.w3.org/2000/svg" viewBox="0 0 968 820.72">
  <defs>
    <clipPath id="clippath">
      <rect x=".12" width="967.88" height="820.72" fill="none"/>
    </clipPath>
  </defs>
  <g clip-path="url(#clippath)">
    <path d="M0,819.72L448.95,49.57c28.48-46.48,86.12-59.43,135.8-40.91,59.85,22.31,108.47,158.71,149.27,208.67l2.21,10.49-124.08,118.23-55.95-94.82c-18.49-20.84-33.92,12.49-43.33,27.12-67.32,104.58-130.4,220.73-194.21,328.51-41.6,70.24-83.53,141.49-122.19,212.84H0v.04ZM287.67,819.72l100.65-164.22,346.86-3.96c24.98-7.86,30.55-28.88,24.45-52.94l-92.54-158.99,127.52-121.49,143.91,238.42c50.45,87,19.61,200.07-71.88,244-12.18,5.82-49.61,19.19-61.5,19.19H287.67ZM287.67,819.72" fill="#6a1b9a"/>
    <path d="M876.21,83.91c70.23-8.98,118.86,69.36,74.52,127.1-22.03,28.66-61.64,35.53-94.86,24.7l-262.97,249.01c35.82,100.02-111.07,154.33-148.01,60.31-26.52-67.43,35.26-120.09,100.75-107.39l261.47-247.43c7.05-12.32.84-27.19,3.12-42.17,5.05-33.22,32.87-59.89,66.02-64.13h-.04ZM876.21,83.91" fill="#00e676"/>
  </g>
</svg>
